if (_typeface_js && _typeface_js.loadFace) _typeface_js.loadFace({"glyphs":{"0":{"ha":1299,"x_min":-35,"x_max":1157,"o":"m 561 -35 q 140 139 315 -35 q -35 557 -35 313 l -35 1146 l 1157 1146 l 1157 557 q 982 139 1157 313 q 561 -35 807 -35 m 856 856 l 268 856 l 268 557 q 353 344 268 433 q 561 256 438 256 q 769 349 683 256 q 856 565 856 442 l 856 856 z "},"1":{"ha":424,"x_min":-35,"x_max":268,"o":"m -35 -35 l -35 1146 q 189 1067 110 1146 q 268 878 268 988 l 268 -35 l -35 -35 z "},"2":{"ha":1396,"x_min":-35,"x_max":1325,"o":"m 494 -35 l 494 628 q 430 789 494 722 q 271 856 365 856 l 222 856 q 40 931 115 856 q -35 1146 -35 1006 l 319 1146 q 655 1008 515 1146 q 794 676 794 871 l 796 256 l 1069 256 q 1250 181 1175 256 q 1325 -35 1325 106 l 494 -35 z "},"3":{"ha":1057,"x_min":-35,"x_max":925,"o":"m 329 -35 l -35 -35 q 41 181 -35 106 q 222 256 117 256 l 329 256 q 478 298 410 256 q 586 411 547 340 l 222 411 q 41 486 117 411 q -35 700 -35 561 l 586 700 q 478 813 547 771 q 329 856 410 856 l 222 856 q 41 931 117 856 q -35 1146 -35 1006 l 329 1146 q 750 972 575 1146 q 925 554 925 799 q 750 137 925 308 q 329 -35 575 -35 z "},"4":{"ha":1175,"x_min":-35,"x_max":1019,"o":"m 796 44 q 756 84 796 44 q 717 233 717 124 l 717 411 l 233 411 q 44 489 122 411 q -35 678 -35 567 l -35 1146 q 189 1067 110 1146 q 268 878 268 988 l 268 700 l 717 700 l 717 1146 q 941 1067 863 1146 q 1019 878 1019 989 l 1019 -35 q 796 44 875 -35 z "},"5":{"ha":1415,"x_min":-35,"x_max":1325,"o":"m 1249 931 q 1211 893 1249 931 q 1067 856 1174 856 l 1018 856 q 860 788 925 856 q 794 628 794 721 l 794 -35 l -35 -35 q 40 181 -35 106 q 221 256 115 256 l 493 256 l 494 676 q 635 1008 494 871 q 971 1146 775 1146 l 1325 1146 q 1249 931 1325 1006 z "},"6":{"ha":1292,"x_min":-35,"x_max":1163,"o":"m 268 1146 l 564 1146 q 986 974 810 1146 q 1163 557 1163 803 q 986 139 1163 313 q 564 -35 810 -35 q 142 139 318 -35 q -33 557 -33 313 l -35 1135 q 142 1551 -35 1379 q 563 1724 318 1724 l 925 1724 q 850 1508 925 1583 q 669 1433 775 1433 l 563 1433 q 358 1349 443 1433 q 268 1146 272 1265 m 564 856 l 271 856 l 271 557 q 356 344 271 433 q 564 256 440 256 q 772 344 688 256 q 857 557 857 433 q 772 767 857 679 q 564 856 686 856 z "},"7":{"ha":1075,"x_min":-35,"x_max":925,"o":"m 622 -35 l 622 557 q 536 767 622 679 q 328 856 450 856 l 221 856 q 40 931 115 856 q -35 1146 -35 1006 l 328 1146 q 749 974 574 1146 q 925 557 925 801 l 925 -35 l 622 -35 z "},"8":{"ha":1290,"x_min":-35,"x_max":1158,"o":"m 561 -35 q 140 138 315 -35 q -35 554 -35 310 q 140 972 -35 799 q 561 1146 315 1146 q 983 972 807 1146 q 1158 554 1158 799 q 983 138 1158 310 q 561 -35 807 -35 m 561 856 q 412 813 481 856 q 304 700 343 771 l 818 700 q 710 813 779 771 q 561 856 642 856 m 304 411 q 411 298 342 340 q 561 256 481 256 q 711 298 642 256 q 819 411 781 340 l 304 411 z "},"9":{"ha":1304,"x_min":-35,"x_max":1163,"o":"m 860 -35 l 563 -35 q 141 138 317 -35 q -35 554 -35 310 q 141 972 -35 799 q 563 1146 317 1146 q 985 972 808 1146 q 1161 554 1161 799 l 1163 -24 q 986 -441 1163 -269 q 564 -612 810 -612 l 201 -612 q 276 -397 201 -472 q 457 -322 351 -322 l 564 -322 q 769 -238 683 -322 q 860 -35 856 -154 m 856 554 q 771 767 856 678 q 563 856 686 856 q 354 767 439 856 q 269 554 269 678 q 355 344 269 432 q 563 256 440 256 l 856 256 l 856 554 z "}," ":{"ha":654,"x_min":0,"x_max":0,"o":""},"!":{"ha":422,"x_min":-35,"x_max":268,"o":"m 44 382 q 5 422 44 382 q -35 571 -35 461 l -35 1146 q 189 1067 110 1146 q 268 878 268 988 l 268 303 q 44 382 124 303 m 44 44 q 5 84 44 44 q -35 233 -35 124 l -35 349 q 189 269 110 349 q 268 81 268 190 l 268 -35 q 44 44 124 -35 z "},"\"":{"ha":718,"x_min":-35,"x_max":571,"o":"m 347 651 q 308 690 347 651 q 268 840 268 729 l 268 1146 q 492 1067 413 1146 q 571 878 571 988 l 571 572 q 347 651 426 572 m 44 651 q 5 690 44 651 q -35 840 -35 729 l -35 1146 q 189 1067 110 1146 q 268 878 268 988 l 268 572 q 44 651 124 572 z "},"'":{"ha":415,"x_min":-35,"x_max":268,"o":"m 44 651 q 5 690 44 651 q -35 840 -35 729 l -35 1146 q 189 1067 110 1146 q 268 878 268 988 l 268 572 q 44 651 124 572 z "},"+":{"ha":1033,"x_min":-35,"x_max":925,"o":"m 590 411 l 590 333 q 516 151 590 228 q 300 75 442 75 l 300 411 l 222 411 q 41 486 117 411 q -35 700 -35 561 l 300 700 l 300 778 q 374 960 300 883 q 590 1036 449 1036 l 590 700 l 668 700 q 849 625 774 700 q 925 411 925 550 l 590 411 z "},",":{"ha":417,"x_min":-35,"x_max":268,"o":"m 44 -147 q 5 -108 44 -147 q -35 42 -35 -68 l -35 349 q 189 269 110 349 q 268 81 268 190 l 268 -226 q 44 -147 124 -226 z "},"-":{"ha":1065,"x_min":-35,"x_max":925,"o":"m 222 411 q 41 486 117 411 q -35 700 -35 561 l 668 700 q 849 625 774 700 q 925 411 925 550 l 222 411 z "},".":{"ha":417,"x_min":-35,"x_max":268,"o":"m 44 44 q 5 84 44 44 q -35 233 -35 124 l -35 349 q 189 269 110 349 q 268 81 268 190 l 268 -35 q 44 44 124 -35 z "},"/":{"ha":624,"x_min":-50,"x_max":647,"o":"m 211 -35 l -50 -35 l 386 1146 l 647 1146 l 211 -35 z "},":":{"ha":424,"x_min":-35,"x_max":268,"o":"m 44 382 q 5 422 44 382 q -35 571 -35 461 l -35 685 q 189 606 110 685 q 268 418 268 528 l 268 303 q 44 382 124 303 m 44 44 q 5 84 44 44 q -35 233 -35 124 l -35 349 q 189 269 110 349 q 268 81 268 190 l 268 -35 q 44 44 124 -35 z "},";":{"ha":422,"x_min":-35,"x_max":268,"o":"m 44 382 q 5 422 44 382 q -35 571 -35 461 l -35 685 q 189 606 110 685 q 268 418 268 528 l 268 303 q 44 382 124 303 m 44 -147 q 5 -108 44 -147 q -35 42 -35 -68 l -35 349 q 189 269 110 349 q 268 81 268 190 l 268 -226 q 44 -147 124 -226 z "},"=":{"ha":1047,"x_min":-35,"x_max":925,"o":"m 222 607 q 41 682 117 607 q -35 897 -35 757 l 668 897 q 849 822 774 897 q 925 607 925 747 l 222 607 m 222 218 q 41 293 117 218 q -35 508 -35 368 l 668 508 q 849 433 774 508 q 925 218 925 358 l 222 218 z "},"?":{"ha":942,"x_min":-35,"x_max":794,"o":"m 500 621 l 494 608 l 494 628 q 430 789 494 722 q 271 856 365 856 l 222 856 q 40 931 115 856 q -35 1146 -35 1006 l 319 1146 q 655 1009 515 1146 q 794 676 794 872 l 794 303 q 571 382 650 303 q 492 565 492 461 q 500 621 492 594 m 572 44 q 532 84 572 44 q 493 233 493 124 l 493 349 q 716 269 638 349 q 794 81 794 190 l 794 -35 q 572 44 650 -35 z "},"A":{"ha":1311,"x_min":-35,"x_max":1161,"o":"m 563 -35 q 141 138 317 -35 q -35 554 -35 310 q 141 972 -35 799 q 563 1146 317 1146 q 985 972 808 1146 q 1161 554 1161 799 l 1161 -35 l 563 -35 m 856 554 q 771 767 856 678 q 563 856 686 856 q 354 767 439 856 q 269 554 269 678 q 355 344 269 432 q 563 256 440 256 l 856 256 l 856 554 z "},"B":{"ha":1292,"x_min":-35,"x_max":1161,"o":"m 563 -35 q 141 139 317 -35 q -35 557 -35 313 l -35 1422 q 189 1343 110 1422 q 268 1154 268 1264 l 268 1146 l 563 1146 q 985 974 808 1146 q 1161 557 1161 803 q 985 139 1161 313 q 563 -35 808 -35 m 563 856 l 269 856 l 269 557 q 354 344 269 433 q 563 256 439 256 q 771 344 686 256 q 856 557 856 433 q 770 767 856 679 q 563 856 685 856 z "},"C":{"ha":1008,"x_min":-35,"x_max":924,"o":"m 561 -35 q 140 138 315 -35 q -35 554 -35 310 q 140 972 -35 799 q 561 1146 315 1146 l 924 1146 q 849 931 924 1006 q 668 856 774 856 l 561 856 q 352 766 439 856 q 265 554 265 676 q 352 344 265 432 q 561 256 439 256 l 668 256 q 849 181 774 256 q 924 -35 924 106 l 561 -35 z "},"D":{"ha":1293,"x_min":-35,"x_max":1161,"o":"m 563 -35 l -35 -35 l -35 554 q 141 972 -35 799 q 563 1146 317 1146 q 985 972 808 1146 q 1161 554 1161 799 q 985 137 1161 308 q 563 -35 808 -35 m 563 856 q 354 767 439 856 q 269 554 269 678 l 269 256 l 563 256 q 770 344 685 256 q 856 554 856 432 q 771 767 856 678 q 563 856 686 856 z "},"E":{"ha":1056,"x_min":-35,"x_max":925,"o":"m 849 486 q 811 449 849 486 q 668 411 774 411 l 483 411 q 381 452 422 411 q 339 554 339 493 q 381 658 339 615 q 483 700 422 700 l 925 700 q 849 486 925 561 m 561 -35 q 140 138 315 -35 q -35 554 -35 310 q 140 972 -35 799 q 561 1146 315 1146 l 925 1146 q 849 931 925 1006 q 668 856 774 856 l 561 856 q 353 766 439 856 q 268 554 268 676 q 353 344 268 432 q 561 256 439 256 l 668 256 q 849 181 774 256 q 925 -35 925 106 l 561 -35 z "},"F":{"ha":1011,"x_min":-35,"x_max":925,"o":"m 849 486 q 811 449 849 486 q 668 411 774 411 l 483 411 q 381 452 422 411 q 339 554 339 493 q 381 658 339 615 q 483 700 422 700 l 925 700 q 849 486 925 561 m 850 931 q 813 893 850 931 q 669 856 775 856 l 563 856 q 354 767 440 856 q 268 557 268 679 l 268 233 q 189 44 268 124 q -35 -35 110 -35 l -35 557 q 141 974 -35 801 q 563 1146 317 1146 l 925 1146 q 850 931 925 1006 z "},"G":{"ha":1307,"x_min":-35,"x_max":1158,"o":"m 906 75 q 563 -35 756 -35 q 141 138 317 -35 q -35 554 -35 310 q 141 972 -35 799 q 563 1146 317 1146 l 925 1146 q 850 931 925 1006 q 669 856 775 856 l 563 856 q 354 766 440 856 q 268 554 268 676 q 354 344 268 432 q 563 256 440 256 q 771 344 686 256 q 856 557 856 433 q 935 746 856 667 q 1158 825 1014 825 l 1158 -35 q 906 75 983 -35 z "},"H":{"ha":1175,"x_min":-35,"x_max":1019,"o":"m 796 44 q 756 84 796 44 q 717 233 717 124 l 717 411 l 268 411 l 268 -35 q 44 44 124 -35 q -35 233 -35 124 l -35 1146 q 189 1067 110 1146 q 268 878 268 988 l 268 700 l 717 700 l 717 1146 q 941 1067 863 1146 q 1019 878 1019 989 l 1019 -35 q 796 44 875 -35 z "},"I":{"ha":424,"x_min":-35,"x_max":268,"o":"m 44 44 q 5 84 44 44 q -35 233 -35 124 l -35 1146 q 189 1067 110 1146 q 268 878 268 988 l 268 -35 q 44 44 124 -35 z "},"J":{"ha":1067,"x_min":-35,"x_max":925,"o":"m 328 -35 l -35 -35 q 40 181 -35 106 q 221 256 115 256 l 328 256 q 536 344 450 256 q 622 554 622 432 l 622 878 q 701 1067 622 988 q 925 1146 781 1146 l 925 554 q 749 138 925 310 q 328 -35 574 -35 z "},"K":{"ha":1288,"x_min":-35,"x_max":1138,"o":"m 835 -35 l 835 97 q 749 309 835 219 q 542 399 664 399 l 268 399 l 268 -35 l -35 -35 l -35 1146 q 189 1067 110 1146 q 268 878 268 988 l 268 689 l 542 689 q 749 778 664 689 q 835 990 835 868 l 835 1129 l 1138 1129 l 1138 990 q 931 543 1138 721 q 1083 342 1028 460 q 1138 97 1138 225 l 1138 -35 l 835 -35 z "},"L":{"ha":979,"x_min":-35,"x_max":925,"o":"m 563 -35 q 141 138 317 -35 q -35 554 -35 310 l -35 1146 q 189 1067 110 1146 q 268 878 268 988 l 268 554 q 354 344 268 432 q 563 256 440 256 l 669 256 q 850 181 775 256 q 925 -35 925 106 l 563 -35 z "},"M":{"ha":2199,"x_min":-35,"x_max":2049,"o":"m 1825 44 q 1785 84 1825 44 q 1746 233 1746 124 l 1746 554 q 1661 767 1746 678 q 1453 856 1576 856 q 1244 766 1331 856 q 1158 554 1158 676 l 1158 -35 q 935 44 1014 -35 q 856 233 856 124 l 856 554 q 771 767 856 678 q 563 856 686 856 q 354 766 440 856 q 268 554 268 676 l 268 233 q 190 44 268 122 q -35 -35 111 -35 l -35 554 q 141 972 -35 799 q 563 1146 317 1146 q 1008 947 828 1146 q 1210 1093 1093 1040 q 1453 1146 1326 1146 q 1874 973 1699 1146 q 2049 554 2049 800 l 2049 -35 q 1825 44 1904 -35 z "},"N":{"ha":1308,"x_min":-35,"x_max":1158,"o":"m 935 44 q 895 84 935 44 q 856 233 856 124 l 856 554 q 770 766 856 676 q 563 856 685 856 q 354 766 440 856 q 268 554 268 676 l 268 233 q 189 44 268 124 q -35 -35 110 -35 l -35 554 q 141 973 -35 800 q 563 1146 317 1146 q 983 972 808 1146 q 1158 554 1158 799 l 1158 -35 q 935 44 1014 -35 z "},"O":{"ha":1290,"x_min":-35,"x_max":1158,"o":"m 561 -35 q 140 138 315 -35 q -35 554 -35 310 q 140 972 -35 799 q 561 1146 315 1146 q 983 972 807 1146 q 1158 554 1158 799 q 983 138 1158 310 q 561 -35 807 -35 m 561 856 q 353 767 438 856 q 268 554 268 678 q 353 344 268 432 q 561 256 439 256 q 769 344 683 256 q 856 554 856 432 q 769 767 856 678 q 561 856 683 856 z "},"P":{"ha":1293,"x_min":-35,"x_max":1161,"o":"m 563 -35 l 268 -35 l 268 -44 q 189 -233 268 -154 q -35 -312 110 -312 l -35 554 q 141 972 -35 799 q 563 1146 317 1146 q 985 972 808 1146 q 1161 554 1161 799 q 985 137 1161 308 q 563 -35 808 -35 m 563 856 q 354 767 439 856 q 269 554 269 678 l 269 256 l 563 256 q 770 344 685 256 q 856 554 856 432 q 771 767 856 678 q 563 856 686 856 z "},"Q":{"ha":1294,"x_min":-35,"x_max":1160,"o":"m 935 -233 q 895 -194 935 -233 q 856 -44 856 -154 l 856 -35 l 563 -35 q 141 138 317 -35 q -35 554 -35 310 q 141 972 -35 799 q 563 1146 317 1146 q 984 972 808 1146 q 1160 554 1160 799 l 1160 -312 q 935 -233 1015 -312 m 856 554 q 771 767 856 678 q 563 856 686 856 q 354 767 439 856 q 269 554 269 678 q 355 344 269 432 q 563 256 440 256 l 856 256 l 856 554 z "},"R":{"ha":982,"x_min":-35,"x_max":925,"o":"m 850 931 q 813 893 850 931 q 669 856 775 856 l 563 856 q 354 767 440 856 q 268 557 268 679 l 268 233 q 189 44 268 124 q -35 -35 110 -35 l -35 557 q 141 974 -35 801 q 563 1146 317 1146 l 925 1146 q 850 931 925 1006 z "},"S":{"ha":1394,"x_min":-35,"x_max":1325,"o":"m 1249 931 q 1211 893 1249 931 q 1067 856 1174 856 l 1018 856 q 860 788 925 856 q 794 628 794 721 l 794 435 q 655 102 794 239 q 319 -35 515 -35 l -35 -35 q 40 181 -35 106 q 221 256 115 256 l 271 256 q 430 322 365 256 q 494 483 494 389 l 494 676 q 635 1009 494 872 q 971 1146 775 1146 l 1325 1146 q 1249 931 1325 1006 z "},"T":{"ha":1253,"x_min":-35,"x_max":1154,"o":"m 1079 914 q 1042 876 1079 914 q 899 839 1004 839 l 711 839 l 711 -35 q 488 44 567 -35 q 408 233 408 124 l 408 839 l 221 839 q 40 914 115 839 q -35 1129 -35 989 l 1154 1129 q 1079 914 1154 989 z "},"U":{"ha":1300,"x_min":-35,"x_max":1158,"o":"m 563 -35 q 141 138 317 -35 q -35 557 -35 311 l -35 1146 q 189 1067 110 1146 q 268 878 268 988 l 268 557 q 354 345 268 435 q 563 256 440 256 q 770 345 685 256 q 856 557 856 435 l 856 878 q 935 1067 856 988 q 1158 1146 1014 1146 l 1158 557 q 983 139 1158 313 q 563 -35 808 -35 z "},"V":{"ha":1300,"x_min":-35,"x_max":1158,"o":"m 561 -35 l -35 -35 l -35 1146 q 189 1067 110 1146 q 268 878 268 988 l 268 256 l 561 256 q 769 344 683 256 q 856 554 856 432 l 856 878 q 935 1067 856 988 q 1158 1146 1014 1146 l 1158 554 q 983 137 1158 308 q 561 -35 807 -35 z "},"W":{"ha":2190,"x_min":-35,"x_max":2049,"o":"m 1453 -35 q 1008 164 1186 -35 q 561 -35 826 -35 q 140 138 315 -35 q -35 554 -35 310 l -35 1146 q 189 1067 110 1146 q 268 878 268 988 l 268 554 q 353 344 268 432 q 561 256 439 256 q 769 344 683 256 q 856 554 856 432 l 856 1146 q 1079 1067 1000 1146 q 1158 878 1158 988 l 1158 554 q 1244 344 1158 432 q 1453 256 1331 256 q 1660 344 1575 256 q 1746 554 1746 432 l 1746 878 q 1825 1067 1746 988 q 2049 1146 1904 1146 l 2049 554 q 1874 137 2049 308 q 1453 -35 1699 -35 z "},"X":{"ha":1310,"x_min":-35,"x_max":1158,"o":"m 856 -35 l 856 125 q 770 337 856 247 q 563 426 685 426 q 353 338 439 426 q 268 125 268 249 l 268 -35 l -35 -35 l -35 125 q 174 572 -35 394 q -35 1018 -35 747 l -35 1129 l 268 1129 l 268 1018 q 354 806 268 896 q 563 717 440 717 q 770 806 685 717 q 856 1018 856 896 l 856 1129 l 1158 1129 l 1158 1018 q 951 572 1158 749 q 1104 372 1050 489 q 1158 125 1158 254 l 1158 -35 l 856 -35 z "},"Y":{"ha":1275,"x_min":-35,"x_max":1158,"o":"m 714 263 l 714 -35 l 410 -35 l 410 264 q 90 474 215 315 q -35 835 -35 633 l -35 1146 q 189 1067 110 1146 q 268 878 268 988 l 268 835 q 354 623 268 713 q 563 533 440 533 q 770 623 685 533 q 856 835 856 713 l 856 878 q 935 1067 856 988 q 1158 1146 1014 1146 l 1158 835 q 1033 474 1158 635 q 714 263 908 314 z "},"Z":{"ha":1399,"x_min":-35,"x_max":1325,"o":"m 971 -35 q 635 102 775 -35 q 494 435 494 239 l 494 628 q 430 789 494 722 q 271 856 365 856 l 222 856 q 40 931 115 856 q -35 1146 -35 1006 l 319 1146 q 655 1009 515 1146 q 794 676 794 872 l 794 483 q 860 323 794 390 q 1018 256 925 256 l 1069 256 q 1250 181 1175 256 q 1325 -35 1325 106 l 971 -35 z "},"\\":{"ha":604,"x_min":-50,"x_max":647,"o":"m 386 -35 l -50 1146 l 211 1146 l 647 -35 l 386 -35 z "},"_":{"ha":1069,"x_min":-35,"x_max":925,"o":"m 222 -35 q 41 40 117 -35 q -35 256 -35 115 l 668 256 q 849 181 774 256 q 925 -35 925 106 l 222 -35 z "},"a":{"ha":1311,"x_min":-35,"x_max":1161,"o":"m 563 -35 q 141 138 317 -35 q -35 554 -35 310 q 141 972 -35 799 q 563 1146 317 1146 q 985 972 808 1146 q 1161 554 1161 799 l 1161 -35 l 563 -35 m 856 554 q 771 767 856 678 q 563 856 686 856 q 354 767 439 856 q 269 554 269 678 q 355 344 269 432 q 563 256 440 256 l 856 256 l 856 554 z "},"b":{"ha":1292,"x_min":-35,"x_max":1161,"o":"m 563 -35 q 141 139 317 -35 q -35 557 -35 313 l -35 1422 q 189 1343 110 1422 q 268 1154 268 1264 l 268 1146 l 563 1146 q 985 974 808 1146 q 1161 557 1161 803 q 985 139 1161 313 q 563 -35 808 -35 m 563 856 l 269 856 l 269 557 q 354 344 269 433 q 563 256 439 256 q 771 344 686 256 q 856 557 856 433 q 770 767 856 679 q 563 856 685 856 z "},"c":{"ha":1008,"x_min":-35,"x_max":924,"o":"m 561 -35 q 140 138 315 -35 q -35 554 -35 310 q 140 972 -35 799 q 561 1146 315 1146 l 924 1146 q 849 931 924 1006 q 668 856 774 856 l 561 856 q 352 766 439 856 q 265 554 265 676 q 352 344 265 432 q 561 256 439 256 l 668 256 q 849 181 774 256 q 924 -35 924 106 l 561 -35 z "},"d":{"ha":1293,"x_min":-35,"x_max":1161,"o":"m 563 -35 l -35 -35 l -35 554 q 141 972 -35 799 q 563 1146 317 1146 q 985 972 808 1146 q 1161 554 1161 799 q 985 137 1161 308 q 563 -35 808 -35 m 563 856 q 354 767 439 856 q 269 554 269 678 l 269 256 l 563 256 q 770 344 685 256 q 856 554 856 432 q 771 767 856 678 q 563 856 686 856 z "},"e":{"ha":1056,"x_min":-35,"x_max":925,"o":"m 849 486 q 811 449 849 486 q 668 411 774 411 l 483 411 q 381 452 422 411 q 339 554 339 493 q 381 658 339 615 q 483 700 422 700 l 925 700 q 849 486 925 561 m 561 -35 q 140 138 315 -35 q -35 554 -35 310 q 140 972 -35 799 q 561 1146 315 1146 l 925 1146 q 849 931 925 1006 q 668 856 774 856 l 561 856 q 353 766 439 856 q 268 554 268 676 q 353 344 268 432 q 561 256 439 256 l 668 256 q 849 181 774 256 q 925 -35 925 106 l 561 -35 z "},"f":{"ha":1011,"x_min":-35,"x_max":925,"o":"m 849 486 q 811 449 849 486 q 668 411 774 411 l 483 411 q 381 452 422 411 q 339 554 339 493 q 381 658 339 615 q 483 700 422 700 l 925 700 q 849 486 925 561 m 850 931 q 813 893 850 931 q 669 856 775 856 l 563 856 q 354 767 440 856 q 268 557 268 679 l 268 233 q 189 44 268 124 q -35 -35 110 -35 l -35 557 q 141 974 -35 801 q 563 1146 317 1146 l 925 1146 q 850 931 925 1006 z "},"g":{"ha":1304,"x_min":-35,"x_max":1163,"o":"m 860 -35 l 563 -35 q 141 138 317 -35 q -35 554 -35 310 q 141 972 -35 799 q 563 1146 317 1146 q 985 972 808 1146 q 1161 554 1161 799 l 1163 -24 q 986 -441 1163 -269 q 564 -612 810 -612 l 201 -612 q 276 -397 201 -472 q 457 -322 351 -322 l 564 -322 q 769 -238 683 -322 q 860 -35 856 -154 m 856 554 q 771 767 856 678 q 563 856 686 856 q 354 767 439 856 q 269 554 269 678 q 355 344 269 432 q 563 256 440 256 l 856 256 l 856 554 z "},"h":{"ha":1294,"x_min":-35,"x_max":1158,"o":"m 935 44 q 895 84 935 44 q 856 233 856 124 l 856 554 q 770 766 856 676 q 563 856 685 856 q 354 766 440 856 q 268 554 268 676 l 268 233 q 189 44 268 124 q -35 -35 110 -35 l -35 1422 q 189 1343 110 1422 q 268 1154 268 1264 l 268 1079 q 563 1146 381 1146 q 983 972 808 1146 q 1158 554 1158 799 l 1158 -35 q 935 44 1014 -35 z "},"i":{"ha":424,"x_min":-35,"x_max":268,"o":"m 44 44 q 5 84 44 44 q -35 233 -35 124 l -35 1146 q 189 1067 110 1146 q 268 878 268 988 l 268 -35 q 44 44 124 -35 z "},"j":{"ha":1067,"x_min":-35,"x_max":925,"o":"m 328 -35 l -35 -35 q 40 181 -35 106 q 221 256 115 256 l 328 256 q 536 344 450 256 q 622 554 622 432 l 622 878 q 701 1067 622 988 q 925 1146 781 1146 l 925 554 q 749 138 925 310 q 328 -35 574 -35 z "},"k":{"ha":1283,"x_min":-35,"x_max":1138,"o":"m 835 -35 l 835 97 q 749 309 835 219 q 542 399 664 399 l 268 399 l 268 -35 l -35 -35 l -35 1422 q 189 1343 110 1422 q 268 1154 268 1264 l 268 689 l 542 689 q 749 778 664 689 q 835 990 835 868 l 835 1129 l 1138 1129 l 1138 990 q 931 543 1138 721 q 1083 342 1028 460 q 1138 97 1138 225 l 1138 -35 l 835 -35 z "},"l":{"ha":864,"x_min":-35,"x_max":925,"o":"m 563 -35 q 141 138 317 -35 q -35 554 -35 310 l -35 1422 q 189 1343 110 1422 q 268 1154 268 1264 l 268 554 q 354 344 268 432 q 563 256 440 256 l 669 256 q 850 181 775 256 q 925 -35 925 106 l 563 -35 z "},"m":{"ha":2199,"x_min":-35,"x_max":2049,"o":"m 1825 44 q 1785 84 1825 44 q 1746 233 1746 124 l 1746 554 q 1661 767 1746 678 q 1453 856 1576 856 q 1244 766 1331 856 q 1158 554 1158 676 l 1158 -35 q 935 44 1014 -35 q 856 233 856 124 l 856 554 q 771 767 856 678 q 563 856 686 856 q 354 766 440 856 q 268 554 268 676 l 268 233 q 190 44 268 122 q -35 -35 111 -35 l -35 554 q 141 972 -35 799 q 563 1146 317 1146 q 1008 947 828 1146 q 1210 1093 1093 1040 q 1453 1146 1326 1146 q 1874 972 1699 1146 q 2049 554 2049 799 l 2049 -35 q 1825 44 1904 -35 z "},"n":{"ha":1308,"x_min":-35,"x_max":1158,"o":"m 935 44 q 895 84 935 44 q 856 233 856 124 l 856 554 q 770 766 856 676 q 563 856 685 856 q 354 766 440 856 q 268 554 268 676 l 268 233 q 189 44 268 124 q -35 -35 110 -35 l -35 554 q 141 973 -35 800 q 563 1146 317 1146 q 983 972 808 1146 q 1158 554 1158 799 l 1158 -35 q 935 44 1014 -35 z "},"o":{"ha":1290,"x_min":-35,"x_max":1158,"o":"m 561 -35 q 140 138 315 -35 q -35 554 -35 310 q 140 972 -35 799 q 561 1146 315 1146 q 983 972 807 1146 q 1158 554 1158 799 q 983 138 1158 310 q 561 -35 807 -35 m 561 856 q 353 767 438 856 q 268 554 268 678 q 353 344 268 432 q 561 256 439 256 q 769 344 683 256 q 856 554 856 432 q 769 767 856 678 q 561 856 683 856 z "},"p":{"ha":1293,"x_min":-35,"x_max":1161,"o":"m 563 -35 l 268 -35 l 268 -44 q 189 -233 268 -154 q -35 -312 110 -312 l -35 554 q 141 972 -35 799 q 563 1146 317 1146 q 985 972 808 1146 q 1161 554 1161 799 q 985 137 1161 308 q 563 -35 808 -35 m 563 856 q 354 767 439 856 q 269 554 269 678 l 269 256 l 563 256 q 770 344 685 256 q 856 554 856 432 q 771 767 856 678 q 563 856 686 856 z "},"q":{"ha":1294,"x_min":-35,"x_max":1160,"o":"m 935 -233 q 895 -194 935 -233 q 856 -44 856 -154 l 856 -35 l 563 -35 q 141 138 317 -35 q -35 554 -35 310 q 141 972 -35 799 q 563 1146 317 1146 q 984 972 808 1146 q 1160 554 1160 799 l 1160 -312 q 935 -233 1015 -312 m 856 554 q 771 767 856 678 q 563 856 686 856 q 354 767 439 856 q 269 554 269 678 q 355 344 269 432 q 563 256 440 256 l 856 256 l 856 554 z "},"r":{"ha":1006,"x_min":-12,"x_max":947,"o":"m 872 931 q 835 893 872 931 q 692 856 797 856 l 585 856 q 376 767 463 856 q 290 557 290 679 l 290 233 q 211 44 290 124 q -12 -35 132 -35 l -12 557 q 163 974 -12 801 q 585 1146 339 1146 l 947 1146 q 872 931 947 1006 z "},"s":{"ha":1396,"x_min":-35,"x_max":1325,"o":"m 1249 931 q 1211 893 1249 931 q 1067 856 1174 856 l 1018 856 q 860 788 925 856 q 794 628 794 721 l 794 435 q 655 102 794 239 q 319 -35 515 -35 l -35 -35 q 40 181 -35 106 q 221 256 115 256 l 271 256 q 430 322 365 256 q 494 483 494 389 l 494 676 q 635 1009 494 872 q 971 1146 775 1146 l 1325 1146 q 1249 931 1325 1006 z "},"t":{"ha":1008,"x_min":-35,"x_max":925,"o":"m 715 723 q 677 685 715 723 q 533 647 639 647 l 483 647 q 380 689 422 647 q 338 792 338 731 q 380 895 338 853 q 483 938 422 938 l 790 938 q 715 723 790 799 m 561 -35 q 140 138 315 -35 q -35 554 -35 310 l -35 1422 q 189 1343 110 1422 q 268 1154 268 1264 l 268 554 q 353 344 268 432 q 561 256 439 256 l 668 256 q 849 181 774 256 q 925 -35 925 106 l 561 -35 z "},"u":{"ha":1300,"x_min":-35,"x_max":1158,"o":"m 563 -35 q 141 138 317 -35 q -35 557 -35 311 l -35 1146 q 189 1067 110 1146 q 268 878 268 988 l 268 557 q 354 345 268 435 q 563 256 440 256 q 770 345 685 256 q 856 557 856 435 l 856 878 q 935 1067 856 988 q 1158 1146 1014 1146 l 1158 557 q 983 139 1158 313 q 563 -35 808 -35 z "},"v":{"ha":1300,"x_min":-35,"x_max":1158,"o":"m 561 -35 l -35 -35 l -35 1146 q 189 1067 110 1146 q 268 878 268 988 l 268 256 l 561 256 q 769 344 683 256 q 856 554 856 432 l 856 878 q 935 1067 856 988 q 1158 1146 1014 1146 l 1158 554 q 983 137 1158 308 q 561 -35 807 -35 z "},"w":{"ha":2190,"x_min":-35,"x_max":2049,"o":"m 1453 -35 q 1008 164 1186 -35 q 561 -35 826 -35 q 140 138 315 -35 q -35 554 -35 310 l -35 1146 q 189 1067 110 1146 q 268 878 268 988 l 268 554 q 353 344 268 432 q 561 256 439 256 q 769 344 683 256 q 856 554 856 432 l 856 1146 q 1079 1067 1000 1146 q 1158 878 1158 988 l 1158 554 q 1244 344 1158 432 q 1453 256 1331 256 q 1660 344 1575 256 q 1746 554 1746 432 l 1746 878 q 1825 1067 1746 988 q 2049 1146 1904 1146 l 2049 554 q 1874 137 2049 308 q 1453 -35 1699 -35 z "},"x":{"ha":1310,"x_min":-35,"x_max":1158,"o":"m 856 -35 l 856 125 q 770 337 856 247 q 563 426 685 426 q 353 338 439 426 q 268 125 268 249 l 268 -35 l -35 -35 l -35 125 q 174 572 -35 394 q -35 1018 -35 747 l -35 1129 l 268 1129 l 268 1018 q 354 806 268 896 q 563 717 440 717 q 770 806 685 717 q 856 1018 856 896 l 856 1129 l 1158 1129 l 1158 1018 q 951 572 1158 749 q 1104 372 1050 489 q 1158 125 1158 254 l 1158 -35 l 856 -35 z "},"y":{"ha":1307,"x_min":-35,"x_max":1160,"o":"m 935 -233 q 895 -194 935 -233 q 856 -44 856 -154 l 856 -35 l 563 -35 q 141 137 317 -35 q -35 554 -35 308 l -35 1146 q 189 1067 110 1146 q 268 878 268 988 l 268 554 q 354 344 268 432 q 563 256 440 256 l 856 256 l 856 878 q 935 1067 856 988 q 1158 1146 1014 1146 l 1160 -312 q 935 -233 1015 -312 z "},"z":{"ha":1399,"x_min":-35,"x_max":1325,"o":"m 971 -35 q 635 102 775 -35 q 494 435 494 239 l 494 628 q 430 789 494 722 q 271 856 365 856 l 222 856 q 40 931 115 856 q -35 1146 -35 1006 l 319 1146 q 655 1009 515 1146 q 794 676 794 872 l 794 483 q 860 323 794 390 q 1018 256 925 256 l 1069 256 q 1250 181 1175 256 q 1325 -35 1325 106 l 971 -35 z "}}}
